<mxfile host="app.diagrams.net" modified="2023-08-17T06:20:21.288Z" agent="Mozilla/5.0 (Windows NT 10.0; Win64; x64) AppleWebKit/537.36 (KHTML, like Gecko) Chrome/115.0.0.0 Safari/537.36 Edg/115.0.1901.203" version="21.6.8" etag="MlAiN9b9PQvAphhXFikC" type="github">
  <diagram name="第 1 页" id="Mk4qZJwuS4O86GVY87Fy">
    <mxGraphModel>
      <root>
        <mxCell id="0" />
        <mxCell id="1" parent="0" />
      </root>
    </mxGraphModel>
  </diagram>
</mxfile>
